<?xml version="1.0" encoding="UTF-8" standalone="no"?>
<svg
   viewBox="0 0 576 512"
   version="1.1"
   id="svg4"
   sodipodi:docname="frog.svg"
   inkscape:version="1.1 (c68e22c387, 2021-05-23)"
   xmlns:inkscape="http://www.inkscape.org/namespaces/inkscape"
   xmlns:sodipodi="http://sodipodi.sourceforge.net/DTD/sodipodi-0.dtd"
   xmlns="http://www.w3.org/2000/svg"
   xmlns:svg="http://www.w3.org/2000/svg">
  <defs
     id="defs8" />
  <sodipodi:namedview
     id="namedview6"
     pagecolor="#ffffff"
     bordercolor="#cccccc"
     borderopacity="1"
     inkscape:pageshadow="0"
     inkscape:pageopacity="1"
     inkscape:pagecheckerboard="0"
     showgrid="false"
     inkscape:zoom="1.3300781"
     inkscape:cx="288.32893"
     inkscape:cy="256"
     inkscape:window-width="1920"
     inkscape:window-height="1011"
     inkscape:window-x="0"
     inkscape:window-y="0"
     inkscape:window-maximized="1"
     inkscape:current-layer="svg4" />
  <path
     d="M446.53 97.43C439.67 60.23 407.19 32 368 32c-39.23 0-71.72 28.29-78.54 65.54C126.75 112.96-.5 250.12 0 416.98.11 451.9 29.08 480 64 480h304c8.84 0 16-7.16 16-16 0-17.67-14.33-32-32-32h-79.49l35.8-48.33c24.14-36.23 10.35-88.28-33.71-106.6-23.89-9.93-51.55-4.65-72.24 10.88l-32.76 24.59c-7.06 5.31-17.09 3.91-22.41-3.19-5.3-7.08-3.88-17.11 3.19-22.41l34.78-26.09c36.84-27.66 88.28-27.62 125.13 0 10.87 8.15 45.87 39.06 40.8 93.21L469.62 480H560c8.84 0 16-7.16 16-16 0-17.67-14.33-32-32-32h-53.63l-98.52-104.68 154.44-86.65A58.16 58.16 0 0 0 576 189.94c0-21.4-11.72-40.95-30.48-51.23-40.56-22.22-98.99-41.28-98.99-41.28zM368 136c-13.26 0-24-10.75-24-24 0-13.26 10.74-24 24-24 13.25 0 24 10.74 24 24 0 13.25-10.75 24-24 24z"
     id="path2"
     style="fill:#e56166;fill-opacity:1" />
</svg>
